HIERARCHY
ROOT Pelvis
{
	OFFSET 0.000000 0.000000 0.000000
	CHANNELS 6 Xposition Yposition Zposition Zrotation Yrotation Xrotation 
	JOINT Left_hip
	{
		OFFSET 0.070241 -0.085575 -0.010474
		CHANNELS 3 Zrotation Yrotation Xrotation
		JOINT Left_knee
		{
			OFFSET 0.032125 -0.356873 -0.000555
			CHANNELS 3 Zrotation Yrotation Xrotation
			JOINT Left_ankle
			{
				OFFSET -0.010961 -0.370212 -0.042278
				CHANNELS 3 Zrotation Yrotation Xrotation
				JOINT Left_foot
				{
					OFFSET 0.023322 -0.052281 0.110104
					CHANNELS 3 Zrotation Yrotation Xrotation
					End Site
					{
						OFFSET 0.000000 0.000000 0.000000
					}
				}
			}
		}
	}
	JOINT Right_hip
	{
		OFFSET -0.068518 -0.084320 -0.007402
		CHANNELS 3 Zrotation Yrotation Xrotation
		JOINT Right_knee
		{
			OFFSET -0.037345 -0.364815 -0.003619
			CHANNELS 3 Zrotation Yrotation Xrotation
			JOINT Right_ankle
			{
				OFFSET 0.013394 -0.370006 -0.039954
				CHANNELS 3 Zrotation Yrotation Xrotation
				JOINT Right_foot
				{
					OFFSET -0.019600 -0.045455 0.113223
					CHANNELS 3 Zrotation Yrotation Xrotation
					End Site
					{
						OFFSET 0.000000 0.000000 0.000000
					}
				}
			}
		}
	}
	JOINT Spine1
	{
		OFFSET -0.002404 0.098129 -0.018169
		CHANNELS 3 Zrotation Yrotation Xrotation
		JOINT Spine2
		{
			OFFSET 0.003989 0.127209 -0.001742
			CHANNELS 3 Zrotation Yrotation Xrotation
			JOINT Spine3
			{
				OFFSET 0.001758 0.046641 0.023475
				CHANNELS 3 Zrotation Yrotation Xrotation
				JOINT Neck
				{
					OFFSET -0.003759 0.194901 -0.039982
					CHANNELS 3 Zrotation Yrotation Xrotation
					JOINT Head
					{
						OFFSET 0.003999 0.063756 0.047665
						CHANNELS 3 Zrotation Yrotation Xrotation
						End Site
						{
							OFFSET 0.000000 0.000000 0.000000
						}
					}
				}
				JOINT Left_collar
				{
					OFFSET 0.071816 0.109048 -0.028973
					CHANNELS 3 Zrotation Yrotation Xrotation
					JOINT Left_shoulder
					{
						OFFSET 0.084027 0.032269 -0.006525
						CHANNELS 3 Zrotation Yrotation Xrotation
						JOINT Left_elbow
						{
							OFFSET 0.243854 -0.013992 -0.025905
							CHANNELS 3 Zrotation Yrotation Xrotation
							JOINT Left_wrist
							{
								OFFSET 0.232156 0.008196 -0.000339
								CHANNELS 3 Zrotation Yrotation Xrotation
								JOINT Left_palm
								{
									OFFSET 0.075377 -0.009461 -0.012494
									CHANNELS 3 Zrotation Yrotation Xrotation
									End Site
									{
										OFFSET 0.000000 0.000000 0.000000
									}
								}
							}
						}
					}
				}
				JOINT Right_collar
				{
					OFFSET -0.073768 0.107001 -0.033755
					CHANNELS 3 Zrotation Yrotation Xrotation
					JOINT Right_shoulder
					{
						OFFSET -0.086837 0.032868 -0.009431
						CHANNELS 3 Zrotation Yrotation Xrotation
						JOINT Right_elbow
						{
							OFFSET -0.236446 -0.012544 -0.018747
							CHANNELS 3 Zrotation Yrotation Xrotation
							JOINT Right_wrist
							{
								OFFSET -0.236110 0.006124 -0.004327
								CHANNELS 3 Zrotation Yrotation Xrotation
								JOINT Right_palm
								{
									OFFSET -0.074800 -0.006875 -0.009610
									CHANNELS 3 Zrotation Yrotation Xrotation
									End Site
									{
										OFFSET 0.000000 0.000000 0.000000
									}
								}
							}
						}
					}
				}
			}
		}
	}
}
MOTION
Frames: 14
Frame Time: 0.100000
0.091534 -0.272946 1.595697 166.843104 43.452091 16.401287 9.885010 9.698311 -58.005052 -2.981545 -4.002998 19.207405 -6.565527 18.165193 7.804234 9.509002 1.157672 -5.723388 0.053050 -2.941829 -58.831158 3.980986 1.459109 25.422538 13.819497 -20.019978 -4.197539 -31.171823 6.165165 -9.962124 3.054307 1.446274 63.012674 -4.706612 -3.533163 -4.839098 7.509661 4.529617 0.795352 -18.468330 -5.101540 -12.070031 19.570882 0.058124 -30.154944 1.907822 -42.869294 -8.084468 4.883527 -5.313516 -17.429781 2.310943 6.310663 -19.606258 29.244728 -1.982855 12.248157 -8.398175 -10.014540 -9.323578 -1.959837 54.082676 -0.504693 -1.860344 24.233474 -29.641091 -5.728092 27.780105 -8.841792 -30.671921 10.596601 11.989267 8.755668 3.376253 -9.019353 
0.077902 -0.274908 1.598769 164.007480 43.654749 17.787903 11.011564 10.288364 -62.561518 -3.221078 -4.064329 21.842447 -6.643133 18.693178 7.753849 9.210573 0.839621 -6.084704 1.156003 -2.741277 -61.131147 4.541094 1.435919 24.484164 15.255191 -21.095926 -4.184690 -33.854012 6.333281 -11.504821 1.906393 2.339608 65.787793 -4.138470 -4.690585 -7.418949 8.856904 3.544317 1.721674 -20.436467 -4.261884 -13.335357 21.411016 1.031721 -31.540159 7.867699 -45.414213 -11.046463 10.001531 -4.876593 -21.492333 1.575355 8.234205 -21.302075 33.792127 -1.400812 11.307054 -7.793343 -9.333680 -8.671039 -6.310368 56.467146 -3.726705 -4.077265 25.688327 -32.782519 -5.649773 28.243945 -8.400168 -34.222495 10.913105 10.719596 8.367275 2.522942 -8.106760 
0.064959 -0.276229 1.600739 162.587467 43.723642 18.282959 11.149428 10.691346 -64.721127 -3.670094 -4.253977 23.761652 -6.687912 19.276104 7.307463 9.518997 0.358444 -6.812539 1.695912 -2.860991 -62.154025 4.926708 1.916146 24.729042 15.838327 -22.231646 -4.186699 -35.572435 6.997525 -12.960626 1.349203 2.720922 67.695312 -4.291160 -5.735991 -8.474187 9.205816 3.132137 2.126131 -21.959694 -4.067476 -14.249105 22.724290 1.962968 -31.171412 12.653861 -49.537120 -14.156544 15.851668 -7.609674 -27.085955 1.981987 7.007696 -27.190248 37.341409 0.684725 8.096026 -8.661190 -9.560007 -8.032187 -10.246619 58.254763 -6.436879 -4.749891 25.787344 -34.599122 -6.170925 28.088491 -10.057234 -36.947021 9.199472 8.605652 9.001491 3.333674 -7.686797 
0.054801 -0.278650 1.603132 162.651802 45.356937 17.550043 10.584917 9.921711 -63.512023 -3.399987 -3.737257 23.259974 -6.939506 17.537123 7.064265 8.816585 1.508376 -8.864213 1.246066 -3.629173 -60.802791 4.392677 1.348845 25.035182 16.191393 -22.397430 -4.624263 -36.658733 8.874111 -11.618322 2.484166 2.894646 66.538328 -4.375386 -5.184435 -6.529436 8.885494 4.476629 1.355576 -23.208620 -6.152377 -11.934518 23.408139 0.013488 -29.786438 14.323120 -52.439045 -16.219555 13.847781 -18.539299 -25.144115 5.496371 -13.287228 -18.375522 31.326814 0.123282 5.760076 -11.727831 -11.744918 -10.099758 -11.339069 57.676359 -6.541625 -2.405092 23.318337 -32.725698 -9.167943 27.222847 -11.888752 -32.716748 7.686008 11.246550 11.990257 7.317497 -11.227578 
0.045101 -0.282022 1.605380 163.591165 46.367056 16.436239 9.980479 8.559954 -60.128908 -2.991895 -3.714954 21.665602 -7.692320 16.451257 6.436953 9.456935 1.987262 -11.393411 0.775673 -4.708786 -57.995757 3.595407 1.091900 24.758385 16.375356 -22.221732 -4.787736 -37.813247 11.331914 -10.281519 4.150365 2.883094 63.766195 -5.349286 -3.703221 -4.177053 7.868891 6.450956 0.679279 -22.568979 -11.681437 -9.513637 23.502274 -1.274030 -27.447718 9.910439 -52.644897 -14.531903 1.657417 -33.048650 -18.282513 17.745475 -40.862562 -14.524088 38.831246 1.164601 8.268365 -17.838414 -17.249114 -13.322853 -10.609500 54.929651 -4.311752 1.258943 21.833387 -30.644922 -11.669692 24.382080 -12.890239 -30.828969 5.028469 12.116799 15.802581 14.771920 -15.042342 
0.035685 -0.282730 1.601967 165.785009 46.681508 15.112705 8.793369 7.119343 -56.347776 -3.748697 -4.063679 21.785211 -7.820632 16.180516 4.550587 10.189245 2.102955 -11.789523 -1.522073 -6.716204 -57.553234 4.160299 0.860706 30.641517 16.846519 -21.187197 -4.197111 -38.275693 12.261697 -9.921809 6.119614 2.268442 62.474497 -6.497212 -2.291818 -3.038576 6.788039 8.111002 0.683339 -22.422532 -17.568500 -6.932519 23.133088 -2.410977 -26.119577 2.691277 -53.758912 -11.649591 -11.375663 -41.325336 -11.667394 22.372624 -41.319441 -20.691470 38.569763 3.670463 8.551561 -20.527580 -20.323870 -14.072144 -8.939250 54.067155 -2.297776 1.765266 18.327185 -30.095827 -10.804292 19.213524 -13.463757 -28.018637 4.188654 18.983348 17.322182 19.155197 -18.247142 
0.034775 -0.282189 1.600811 166.219416 44.400203 12.018451 8.966946 8.423141 -52.768426 -4.904771 -4.208483 23.466777 -5.560611 18.301391 3.131155 9.191780 0.119456 -12.768761 -3.250539 -6.334735 -61.241183 7.385175 4.836429 40.510519 18.799620 -19.381384 -0.896159 -41.166921 11.965110 -13.667020 5.628232 1.377396 64.689911 -7.384125 -1.401522 -2.810915 6.007391 8.101205 1.599318 -21.838715 -18.720137 -8.810875 21.587012 -1.577466 -25.778875 1.216125 -50.855814 -9.687853 -8.751441 -30.522140 -12.656879 20.799635 -40.127845 -19.671829 43.885647 3.708138 10.973309 -19.359362 -20.018829 -14.543834 -8.346154 54.661570 -1.507194 -2.384283 20.386911 -34.142320 -8.354998 15.323209 -16.194050 -31.619937 4.593951 19.680425 16.004223 16.491677 -17.691611 
0.050593 -0.279091 1.628686 166.684867 45.417155 14.253442 9.905390 7.973767 -55.389067 -3.973760 -5.117502 24.970514 -5.595294 18.881623 3.239196 9.387168 -0.520808 -10.112318 -2.792170 -5.066802 -59.171621 5.273951 6.382220 30.041848 17.136372 -19.185987 -2.035183 -37.551233 10.306869 -13.415389 4.213692 2.162726 63.723822 -6.501639 -2.476873 -1.717559 6.294335 6.677594 0.590699 -20.370261 -14.480798 -11.007600 21.535275 -0.539545 -26.396852 -1.218136 -47.630812 -6.956644 0.422260 -18.128956 -16.368603 14.217251 -28.450315 -17.547776 44.268761 -0.738769 10.882538 -15.267463 -15.642827 -11.929810 -3.326157 55.491516 0.619854 -5.317965 23.728221 -36.012955 -7.478417 18.621083 -16.769362 -34.186152 8.110278 14.354110 12.673376 10.546779 -12.694840 
0.073250 -0.280574 1.660324 164.224277 47.054228 15.637811 12.239523 9.376207 -58.562763 -2.777380 -6.776082 24.207822 -6.621081 18.703592 4.583706 10.287796 -0.041827 -8.947902 -0.610131 -2.958699 -62.036766 5.776386 4.126454 30.225717 16.278333 -19.994624 -4.596181 -37.559035 8.238662 -13.703912 2.638243 2.144994 65.863171 -6.034512 -3.747075 -4.801839 7.308308 5.001093 0.484274 -19.195143 -7.967315 -15.250694 22.261078 -0.059565 -27.986730 1.844426 -47.945397 -8.902167 9.794689 -8.012579 -19.539239 6.890696 -12.502747 -17.395940 28.569838 -5.356293 12.274908 -9.983432 -10.759027 -8.518903 -3.914366 58.914386 -1.800202 -5.361297 25.013492 -33.975963 -7.408462 21.870339 -14.979643 -27.995860 10.487326 11.202817 8.195548 4.355745 -7.564106 
0.091143 -0.285943 1.687596 162.121708 49.934097 17.520072 13.284569 10.736693 -60.195797 -1.633484 -7.974384 18.607907 -7.119977 17.958562 7.485112 10.235728 0.849349 -7.561432 0.781415 -2.284541 -65.161952 6.082015 1.820257 29.896461 16.136343 -20.626309 -5.480090 -37.373526 5.925999 -13.777985 0.817943 1.626227 67.765030 -4.096322 -5.744951 -8.351592 9.235495 2.542548 1.485274 -19.414480 -1.793803 -17.845153 22.253475 1.301376 -30.269158 9.969090 -49.209582 -13.083968 15.453359 -2.221205 -22.999008 1.666590 2.973740 -20.380891 20.342337 -5.719606 11.500820 -6.117912 -7.246145 -5.661559 -9.224267 61.051145 -7.624364 -3.975936 27.794863 -32.085491 -7.241701 25.092067 -11.920145 -25.503409 11.312885 8.418609 5.102881 0.021510 -4.395187 
0.099164 -0.292504 1.709466 160.008924 52.647322 18.212630 13.757543 11.983264 -59.563990 -0.139477 -8.143979 11.236908 -8.179875 16.476283 10.525682 10.405622 2.258708 -6.788200 1.637144 -1.751345 -66.393420 6.063956 -0.412510 28.365853 15.140975 -20.836219 -5.889693 -36.005521 5.193076 -11.842080 0.604084 0.919047 67.567822 -2.873005 -6.326584 -9.189589 10.215639 1.756329 1.051511 -20.105903 1.398355 -17.630348 21.609381 0.869463 -31.565589 13.761219 -51.093017 -16.226341 17.798209 -4.297792 -23.544108 1.222013 3.329584 -17.781991 16.203310 -5.878193 13.720312 -6.225215 -7.178609 -6.392753 -10.876381 62.026737 -10.128375 -1.852505 28.216566 -29.167465 -8.952181 26.470285 -11.613205 -22.882340 10.590745 7.106571 5.491003 -0.129240 -5.148315 
0.102224 -0.294850 1.725453 160.678757 54.339847 16.958813 13.643236 12.194511 -55.263794 0.422669 -7.433372 6.558215 -9.240105 14.677546 11.621560 10.044369 3.120248 -9.069782 1.963950 -2.182034 -64.426303 5.751659 -1.616039 29.095639 13.341060 -20.408708 -6.838954 -34.400732 7.866014 -8.651523 2.105167 0.474561 64.906821 -3.990427 -4.779737 -5.682321 9.210934 3.462885 0.088735 -19.293495 -1.792552 -14.600168 20.452184 -0.777354 -30.386427 9.807822 -52.073362 -14.189803 9.534200 -13.471457 -17.354247 9.932811 -27.907332 -12.548015 22.164541 -7.485639 8.818564 -11.867886 -10.425914 -8.408096 -10.106981 60.535638 -7.798149 0.592882 25.308192 -26.509862 -11.325328 24.636997 -13.176608 -23.025481 9.915578 6.832705 9.240095 4.612279 -8.361170 
0.102214 -0.296988 1.736985 161.870260 53.716799 15.169751 13.806049 12.346265 -51.398584 0.561833 -6.741595 6.479568 -10.235248 14.065673 11.149085 10.927434 3.607632 -10.753199 2.266656 -2.005256 -61.247876 5.587738 -1.575271 29.837205 11.781901 -19.340811 -7.666271 -33.120966 9.098787 -6.462428 3.614870 0.041959 62.408699 -6.293249 -2.910580 -2.609072 7.151720 5.435930 -0.698525 -17.973361 -7.176599 -10.762012 19.302519 -1.412921 -28.598862 1.459880 -50.666163 -10.239315 -5.002951 -22.657249 -10.227168 23.758785 -46.887932 -16.809530 32.724373 -5.171012 9.748960 -17.542153 -15.125973 -10.989210 -7.789881 57.676734 -4.087304 3.203477 25.425125 -25.414658 -12.191992 22.153492 -12.143275 -24.711672 7.951206 8.073838 12.802520 10.488861 -11.087591 
0.107319 -0.297184 1.743928 161.739701 51.833132 14.272681 14.650384 13.071968 -50.015030 0.646917 -6.875211 7.149220 -9.471815 15.275676 10.906367 10.828510 3.331215 -9.238764 3.093351 -0.940879 -60.002882 6.122273 -0.700281 29.413873 9.867877 -18.967113 -7.303143 -30.206378 7.575988 -6.664962 2.171363 0.121774 61.696074 -7.025537 -3.684096 -2.809530 6.437501 4.298199 -0.404440 -17.250541 -5.722558 -11.008913 18.279753 1.205894 -27.662347 -1.883823 -49.610056 -7.908682 -3.673380 -17.023960 -12.716138 21.170002 -31.323312 -26.754658 33.898770 0.012394 3.352102 -16.463542 -12.928305 -8.021189 -6.629077 58.178987 -4.122435 2.619882 30.223750 -25.814286 -8.787032 20.319789 -10.872828 -27.934554 6.525934 7.309222 11.803651 7.916641 -8.164388 
